<svg xmlns="http://www.w3.org/2000/svg" viewBox="0 0 29.273 29.282" width="29.273" height="29.282" role="img" aria-label="芳仁牙醫診所・shape-r1c1">
<g transform="translate(-166.723 511.764) scale(1 -1)">
  <path d="M 169.138 507.466 C 174.036 512.891 187.403 513.495 193.553 507.466 C 197.569 503.528 195.758 495.329 194.278 492.182 C 192.28 487.935 190.318 482.482 181.357 482.482 C 175.147 482.482 171.687 485.294 168.543 492.182 C 165.68 498.451 166.436 504.473 169.138 507.466 M 183.24 486.006 C 183.489 486.079 183.584 486.097 183.827 486.006 C 183.99 485.945 184.211 485.956 184.372 486.006 C 184.897 486.169 185.415 487.205 185.32 488.523 C 185.225 489.84 181.834 489.657 181.836 488.523 C 181.839 487.619 182.163 486.455 182.609 486.139 C 182.801 486.003 182.943 485.919 183.24 486.006 M 178.786 486.006 C 179.035 486.079 179.13 486.097 179.373 486.006 C 179.536 485.945 179.757 485.956 179.918 486.006 C 180.443 486.169 180.961 487.205 180.866 488.523 C 180.771 489.84 177.379 489.657 177.382 488.523 C 177.385 487.619 177.709 486.455 178.155 486.139 C 178.347 486.003 178.489 485.919 178.786 486.006" fill="currentColor" fill-rule="evenodd"/>
</g>
</svg>
